<svg width="45" height="45" viewBox="0 0 45 45" fill="none" xmlns="http://www.w3.org/2000/svg">
<path d="M5.625 16.875H39.375M13.125 5.625V9.375M31.875 5.625V9.375M11.25 22.5H15M20.625 22.5H24.375M30 22.5H33.75M11.25 28.125H15M20.625 28.125H24.375M30 28.125H33.75M11.25 33.75H15M20.625 33.75H24.375M30 33.75H33.75M11.625 39.375H33.375C35.4752 39.375 36.5254 39.375 37.3275 38.9662C38.0331 38.6068 38.6068 38.0331 38.9662 37.3275C39.375 36.5254 39.375 35.4752 39.375 33.375V15.375C39.375 13.2748 39.375 12.2247 38.9662 11.4225C38.6068 10.7169 38.0331 10.1432 37.3275 9.78373C36.5254 9.375 35.4752 9.375 33.375 9.375H11.625C9.52481 9.375 8.4747 9.375 7.67254 9.78373C6.96692 10.1432 6.39324 10.7169 6.03373 11.4225C5.625 12.2247 5.625 13.2748 5.625 15.375V33.375C5.625 35.4752 5.625 36.5254 6.03373 37.3275C6.39324 38.0331 6.96692 38.6068 7.67254 38.9662C8.4747 39.375 9.52479 39.375 11.625 39.375Z" stroke="#2F7CC4" stroke-width="2.67" stroke-linecap="round"/>
</svg>
