<svg width="74" height="74" viewBox="0 0 74 74" fill="none" xmlns="http://www.w3.org/2000/svg">
<rect width="74" height="74" rx="14" fill="#2F7CC4"/>
<path d="M20.3079 24.0438C20.4135 21.2574 22.0146 18.7366 24.0722 16.679C27.4966 13.2547 32.96 13.7148 35.1341 17.6106L36.7296 20.4695C38.1694 23.0494 37.5915 26.4339 35.3236 28.7017M49.9564 53.6921C52.7426 53.5866 55.2634 51.9855 57.321 49.9279C60.7455 46.5035 60.2853 41.0401 56.3896 38.8659L53.5305 37.2704C50.9508 35.8306 47.5661 36.4086 45.2983 38.6764" stroke="white" stroke-width="3"/>
<path d="M20.3078 24.0439C20.1299 28.7347 21.3171 36.7008 29.3081 44.6919C37.2991 52.683 45.2654 53.8701 49.9561 53.6924M45.2983 38.6764C45.2983 38.6764 42.5474 41.427 37.5602 36.4398C32.573 31.4525 35.3236 28.7017 35.3236 28.7017" stroke="white" stroke-width="3"/>
</svg>
