<svg width="47" height="47" viewBox="0 0 47 47" fill="none" xmlns="http://www.w3.org/2000/svg">
<path d="M21.62 38.403H2.9375V6.63879H40.3221V17.8405" stroke="#2F7CC4" stroke-width="2.67" stroke-miterlimit="10"/>
<path d="M21.6396 1.01831V10.3791" stroke="#2F7CC4" stroke-width="2.67" stroke-miterlimit="10"/>
<path d="M12.2787 1.01831V10.3791" stroke="#2F7CC4" stroke-width="2.67" stroke-miterlimit="10"/>
<path d="M30.9808 1.01831V10.3791" stroke="#2F7CC4" stroke-width="2.67" stroke-miterlimit="10"/>
<path d="M16.0192 15.98H19.7596" stroke="#2F7CC4" stroke-width="2.67" stroke-miterlimit="10"/>
<path d="M23.5 15.98H27.2404" stroke="#2F7CC4" stroke-width="2.67" stroke-miterlimit="10"/>
<path d="M30.9808 15.98H34.7213" stroke="#2F7CC4" stroke-width="2.67" stroke-miterlimit="10"/>
<path d="M8.53833 23.4608H12.2787" stroke="#2F7CC4" stroke-width="2.67" stroke-miterlimit="10"/>
<path d="M16.0192 23.4608H19.7596" stroke="#2F7CC4" stroke-width="2.67" stroke-miterlimit="10"/>
<path d="M8.53833 30.9417H12.2787" stroke="#2F7CC4" stroke-width="2.67" stroke-miterlimit="10"/>
<path d="M16.0192 30.9417H19.7596" stroke="#2F7CC4" stroke-width="2.67" stroke-miterlimit="10"/>
<path d="M23.5 23.4608H27.2404" stroke="#2F7CC4" stroke-width="2.67" stroke-miterlimit="10"/>
<path d="M34.7213 44.0233C39.8803 44.0233 44.0625 40.674 44.0625 36.5425C44.0625 32.4109 39.8803 29.0616 34.7213 29.0616C29.5622 29.0616 25.38 32.4109 25.38 36.5425C25.38 40.674 29.5622 44.0233 34.7213 44.0233Z" stroke="#2F7CC4" stroke-width="2.67" stroke-miterlimit="10"/>
<path d="M39.3821 21.5416H42.1825V24.342C42.1825 25.5834 41.6894 26.7738 40.8116 27.6516C39.9339 28.5293 38.7434 29.0225 37.5021 29.0225H34.7212V26.2612C34.7161 25.6449 34.8327 25.0337 35.0644 24.4626C35.296 23.8915 35.6382 23.3718 36.0713 22.9332C36.5043 22.4947 37.0197 22.1461 37.5879 21.9072C38.156 21.6684 38.7658 21.5442 39.3821 21.5416Z" stroke="#2F7CC4" stroke-width="2.67" stroke-miterlimit="10"/>
<path d="M29.1008 21.5417C29.8396 21.5391 30.5717 21.6827 31.2547 21.9642C31.9378 22.2458 32.5584 22.6597 33.0808 23.1821C33.6033 23.7045 34.0172 24.3251 34.2987 25.0082C34.5802 25.6912 34.7238 26.4233 34.7212 27.1621V29.0225" stroke="#2F7CC4" stroke-width="2.67" stroke-miterlimit="10"/>
</svg>
