<svg width="68" height="68" viewBox="0 0 68 68" fill="none" xmlns="http://www.w3.org/2000/svg">
<path d="M12.3994 39.6951H9.21185C8.93006 39.6951 8.65981 39.5831 8.46055 39.3839C8.26129 39.1846 8.14935 38.9143 8.14935 38.6326V29.3676C8.14935 29.0858 8.26129 28.8155 8.46055 28.6163C8.65981 28.417 8.93006 28.3051 9.21185 28.3051H12.3994C12.6811 28.3051 12.9514 28.417 13.1507 28.6163C13.3499 28.8155 13.4619 29.0858 13.4619 29.3676V38.6326C13.4619 38.9143 13.3499 39.1846 13.1507 39.3839C12.9514 39.5831 12.6811 39.6951 12.3994 39.6951ZM10.2744 37.5701H11.3369V30.4301H10.2744V37.5701Z" fill="#2F7CC4"/>
<path d="M16.6494 42.0644H12.3994C12.1176 42.0644 11.8473 41.9525 11.6481 41.7532C11.4488 41.554 11.3369 41.2837 11.3369 41.0019V26.9982C11.3369 26.7164 11.4488 26.4461 11.6481 26.2469C11.8473 26.0476 12.1176 25.9357 12.3994 25.9357H16.6494C16.7889 25.9357 16.927 25.9632 17.056 26.0165C17.1849 26.0699 17.302 26.1482 17.4007 26.2469C17.4993 26.3455 17.5776 26.4627 17.631 26.5916C17.6844 26.7205 17.7119 26.8586 17.7119 26.9982V41.0019C17.7119 41.1414 17.6844 41.2796 17.631 41.4085C17.5776 41.5374 17.4993 41.6546 17.4007 41.7532C17.302 41.8519 17.1849 41.9301 17.056 41.9835C16.927 42.0369 16.7889 42.0644 16.6494 42.0644ZM13.4619 39.9394H15.5869V28.0607H13.4619V39.9394Z" fill="#2F7CC4"/>
<path d="M23.715 44.625H16.6494C16.3676 44.625 16.0973 44.5131 15.8981 44.3138C15.6988 44.1145 15.5869 43.8443 15.5869 43.5625V24.4375C15.5869 24.1557 15.6988 23.8855 15.8981 23.6862C16.0973 23.4869 16.3676 23.375 16.6494 23.375H23.715C23.9968 23.375 24.267 23.4869 24.4663 23.6862C24.6655 23.8855 24.7775 24.1557 24.7775 24.4375V43.5625C24.7775 43.8443 24.6655 44.1145 24.4663 44.3138C24.267 44.5131 23.9968 44.625 23.715 44.625ZM17.7119 42.5H22.6525V25.5H17.7119V42.5Z" fill="#2F7CC4"/>
<path d="M58.7881 39.6951H55.6006C55.3189 39.6951 55.0486 39.5831 54.8493 39.3839C54.6501 39.1846 54.5381 38.9143 54.5381 38.6326V29.3676C54.5381 29.0858 54.6501 28.8155 54.8493 28.6163C55.0486 28.417 55.3189 28.3051 55.6006 28.3051H58.7881C59.0699 28.3051 59.3402 28.417 59.5394 28.6163C59.7387 28.8155 59.8506 29.0858 59.8506 29.3676V38.6326C59.8506 38.9143 59.7387 39.1846 59.5394 39.3839C59.3402 39.5831 59.0699 39.6951 58.7881 39.6951ZM56.6631 37.5701H57.7256V30.4301H56.6631V37.5701Z" fill="#2F7CC4"/>
<path d="M55.59 42.0644H51.34C51.0582 42.0644 50.788 41.9525 50.5887 41.7532C50.3895 41.554 50.2775 41.2837 50.2775 41.0019V26.9982C50.2775 26.7164 50.3895 26.4461 50.5887 26.2469C50.788 26.0476 51.0582 25.9357 51.34 25.9357H55.59C55.8718 25.9357 56.1421 26.0476 56.3413 26.2469C56.5406 26.4461 56.6525 26.7164 56.6525 26.9982V41.0019C56.6525 41.2837 56.5406 41.554 56.3413 41.7532C56.1421 41.9525 55.8718 42.0644 55.59 42.0644ZM52.4025 39.9394H54.5275V28.0607H52.4025V39.9394Z" fill="#2F7CC4"/>
<path d="M51.34 44.625H44.2744C43.9926 44.625 43.7223 44.5131 43.5231 44.3138C43.3238 44.1145 43.2119 43.8443 43.2119 43.5625V24.4375C43.2119 24.1557 43.3238 23.8855 43.5231 23.6862C43.7223 23.4869 43.9926 23.375 44.2744 23.375H51.34C51.6218 23.375 51.892 23.4869 52.0913 23.6862C52.2905 23.8855 52.4025 24.1557 52.4025 24.4375V43.5625C52.4025 43.8443 52.2905 44.1145 52.0913 44.3138C51.892 44.5131 51.6218 44.625 51.34 44.625ZM45.3369 42.5H50.2775V25.5H45.3369V42.5Z" fill="#2F7CC4"/>
<path d="M44.2744 37.1875H23.715C23.4332 37.1875 23.163 37.0756 22.9637 36.8763C22.7645 36.677 22.6525 36.4068 22.6525 36.125V31.875C22.6525 31.5932 22.7645 31.323 22.9637 31.1237C23.163 30.9244 23.4332 30.8125 23.715 30.8125H44.2744C44.5562 30.8125 44.8264 30.9244 45.0257 31.1237C45.225 31.323 45.3369 31.5932 45.3369 31.875V36.125C45.3369 36.4068 45.225 36.677 45.0257 36.8763C44.8264 37.0756 44.5562 37.1875 44.2744 37.1875ZM24.7775 35.0625H43.2119V32.9375H24.7775V35.0625Z" fill="#2F7CC4"/>
</svg>
