<svg width="33" height="23" viewBox="0 0 33 23" fill="none" xmlns="http://www.w3.org/2000/svg">
<path d="M20.8635 22.9882C20.5252 22.9882 20.187 22.8702 19.9199 22.6174C19.4036 22.1285 19.4036 21.3194 19.9199 20.8306L29.7826 11.492L19.9199 2.15349C19.4036 1.66465 19.4036 0.855534 19.9199 0.366692C20.4362 -0.122149 21.2907 -0.122149 21.807 0.366692L32.6132 10.5986C33.1295 11.0875 33.1295 11.8966 32.6132 12.3854L21.807 22.6174C21.54 22.8702 21.2017 22.9882 20.8635 22.9882Z" fill="white"/>
<path d="M31.3678 12.7561H1.406C0.67609 12.7561 0.0708008 12.183 0.0708008 11.4918C0.0708008 10.8007 0.67609 10.2276 1.406 10.2276H31.3678C32.0977 10.2276 32.703 10.8007 32.703 11.4918C32.703 12.183 32.0977 12.7561 31.3678 12.7561Z" fill="white"/>
</svg>
