<svg width="52" height="52" viewBox="0 0 52 52" fill="none" xmlns="http://www.w3.org/2000/svg">
<path d="M32.5 8.66663H10.8333C9.63668 8.66663 8.66663 9.63668 8.66663 10.8333V13C8.66663 14.1966 9.63668 15.1666 10.8333 15.1666H32.5C33.6966 15.1666 34.6666 14.1966 34.6666 13V10.8333C34.6666 9.63668 33.6966 8.66663 32.5 8.66663Z" stroke="#2F7CC4" stroke-width="2.3" stroke-linecap="round" stroke-linejoin="round"/>
<path d="M34.6666 43.3333H21.6666H13C10.6067 43.3333 8.66663 41.3933 8.66663 39V22.4726C8.66663 21.9528 8.85363 21.4501 9.19352 21.0566L14.2803 15.1666H21.6666H29.053L34.1397 21.0566C34.4796 21.4501 34.6666 21.9528 34.6666 22.4726V30.3333" stroke="#2F7CC4" stroke-width="2.3" stroke-linecap="round" stroke-linejoin="round"/>
<path d="M17.3334 28.1667H21.6667M21.6667 28.1667H26M21.6667 28.1667V23.8334M21.6667 28.1667V32.5" stroke="#2F7CC4" stroke-width="2.3" stroke-linecap="round" stroke-linejoin="round"/>
<path d="M36.8334 43.3334C40.4232 43.3334 43.3334 40.4232 43.3334 36.8334C43.3334 33.2435 40.4232 30.3334 36.8334 30.3334C33.2435 30.3334 30.3334 33.2435 30.3334 36.8334C30.3334 40.4232 33.2435 43.3334 36.8334 43.3334Z" stroke="#2F7CC4" stroke-width="2.3" stroke-linecap="round" stroke-linejoin="round"/>
<path d="M40.0834 31.2043L33.5834 42.4626" stroke="#2F7CC4" stroke-width="2.3" stroke-linecap="round" stroke-linejoin="round"/>
</svg>
