<svg width="35" height="39" viewBox="0 0 35 39" fill="none" xmlns="http://www.w3.org/2000/svg">
<path fill-rule="evenodd" clip-rule="evenodd" d="M15.6073 0.239625H19.3927C22.6854 0.239589 25.2934 0.239571 27.3345 0.514001C29.435 0.796403 31.1353 1.39145 32.4762 2.73226C33.8169 4.07309 34.4119 5.77329 34.6944 7.87388C34.9688 9.91497 34.9688 12.523 34.9688 15.8156V23.1844C34.9688 26.4771 34.9688 29.0851 34.6944 31.1262C34.4119 33.2267 33.8169 34.927 32.4762 36.2679C31.1353 37.6086 29.435 38.2036 27.3345 38.4862C25.2934 38.7605 22.6854 38.7605 19.3927 38.7605H15.6073C12.3146 38.7605 9.70659 38.7605 7.66551 38.4862C5.56492 38.2036 3.86472 37.6086 2.52389 36.2679C1.18308 34.927 0.588029 33.2267 0.305627 31.1262C0.0311972 29.0851 0.031215 26.4771 0.0312508 23.1844V15.8156C0.031215 12.523 0.0311972 9.91497 0.305627 7.87388C0.588029 5.77329 1.18308 4.07309 2.52389 2.73226C3.86472 1.39145 5.56492 0.796403 7.66551 0.514001C9.70659 0.239571 12.3146 0.239589 15.6073 0.239625ZM8.02361 3.17753C6.22103 3.41987 5.18249 3.87436 4.42424 4.63261C3.66599 5.39086 3.21149 6.4294 2.96915 8.23198C2.7216 10.0732 2.71875 12.5003 2.71875 15.9167V23.0834C2.71875 26.4997 2.7216 28.9269 2.96915 30.7682C3.21149 32.5706 3.66599 33.6092 4.42424 34.3675C5.18249 35.1257 6.22103 35.5802 8.02361 35.8225C9.86483 36.0701 12.2919 36.073 15.7083 36.073H19.2917C22.708 36.073 25.1352 36.0701 26.9765 35.8225C28.7789 35.5802 29.8175 35.1257 30.5758 34.3675C31.334 33.6092 31.7885 32.5706 32.0308 30.7682C32.2784 28.9269 32.2812 26.4997 32.2812 23.0834V15.9167C32.2812 12.5003 32.2784 10.0732 32.0308 8.23198C31.7885 6.4294 31.334 5.39086 30.5758 4.63261C29.8175 3.87436 28.7789 3.41987 26.9765 3.17753C25.1352 2.92997 22.708 2.92712 19.2917 2.92712H15.7083C12.2919 2.92712 9.86483 2.92997 8.02361 3.17753ZM8.98958 12.3334C8.98958 11.5912 9.59121 10.9896 10.3333 10.9896H24.6667C25.4088 10.9896 26.0104 11.5912 26.0104 12.3334C26.0104 13.0755 25.4088 13.6771 24.6667 13.6771H10.3333C9.59121 13.6771 8.98958 13.0755 8.98958 12.3334ZM8.98958 19.5C8.98958 18.7579 9.59121 18.1563 10.3333 18.1563H24.6667C25.4088 18.1563 26.0104 18.7579 26.0104 19.5C26.0104 20.2421 25.4088 20.8438 24.6667 20.8438H10.3333C9.59121 20.8438 8.98958 20.2421 8.98958 19.5ZM8.98958 26.6667C8.98958 25.9246 9.59121 25.323 10.3333 25.323H19.2917C20.0338 25.323 20.6354 25.9246 20.6354 26.6667C20.6354 27.4088 20.0338 28.0105 19.2917 28.0105H10.3333C9.59121 28.0105 8.98958 27.4088 8.98958 26.6667Z" fill="currentColor"/>
</svg>
