<svg width="46" height="46" viewBox="0 0 46 46" fill="none" xmlns="http://www.w3.org/2000/svg">
<path fill-rule="evenodd" clip-rule="evenodd" d="M23 2.39587C23.7939 2.39587 24.4375 3.03947 24.4375 3.83337V4.31528C24.6507 4.3185 24.8326 4.32548 25.0022 4.34049C28.4717 4.64729 31.2218 7.39747 31.5286 10.8669C31.5566 11.184 31.5566 11.5433 31.5566 12.0709V14.4153C31.5566 21.8314 25.9138 27.9295 18.6876 28.6506V32.5836C18.6876 37.0824 22.3346 40.7294 26.8334 40.7294H28.5246C30.9207 40.7294 33.0141 39.4228 34.1276 37.482C31.2804 36.5261 29.2292 33.8359 29.2292 30.6667C29.2292 26.6971 32.4471 23.4792 36.4167 23.4792C40.3863 23.4792 43.6042 26.6971 43.6042 30.6667C43.6042 34.386 40.7792 37.4454 37.1581 37.8164C35.7635 41.2118 32.4251 43.6044 28.5246 43.6044H26.8334C20.7468 43.6044 15.8126 38.6701 15.8126 32.5836V28.6532C8.2833 27.9301 2.3959 21.5865 2.3959 13.8677L2.39588 12.071C2.39582 11.5433 2.39578 11.1841 2.42382 10.8669C2.73062 7.39747 5.48083 4.64729 8.95028 4.34049C9.24865 4.31409 9.58436 4.31258 10.0626 4.31252V3.83337C10.0626 3.03947 10.7061 2.39587 11.5001 2.39587C12.294 2.39587 12.9376 3.03947 12.9376 3.83337V7.66671C12.9376 8.46061 12.294 9.10421 11.5001 9.10421C10.7061 9.10421 10.0626 8.46061 10.0626 7.66671V7.18758C9.5577 7.18792 9.36091 7.19038 9.20351 7.20431C7.12186 7.38839 5.47173 9.0385 5.28765 11.1202C5.2723 11.2938 5.2709 11.5154 5.2709 12.1458V13.8677C5.2709 20.4836 10.6342 25.8469 17.2501 25.8469C23.5635 25.8469 28.6816 20.7288 28.6816 14.4153V12.1458C28.6816 11.5154 28.6803 11.2938 28.6648 11.1202C28.4808 9.0385 26.8307 7.38839 24.749 7.20431C24.6679 7.19712 24.5763 7.193 24.4375 7.19065V7.66671C24.4375 8.46061 23.7939 9.10421 23 9.10421C22.2062 9.10421 21.5625 8.46061 21.5625 7.66671V3.83337C21.5625 3.03947 22.2062 2.39587 23 2.39587ZM32.1042 30.6667C32.1042 28.2851 34.0351 26.3542 36.4167 26.3542C38.7984 26.3542 40.7292 28.2851 40.7292 30.6667C40.7292 33.0484 38.7984 34.9792 36.4167 34.9792C34.0351 34.9792 32.1042 33.0484 32.1042 30.6667Z" fill="#2F7CC4"/>
</svg>
